<?xml version="1.0" encoding="utf-8"?>
<!-- Generator: Adobe Illustrator 19.2.1, SVG Export Plug-In . SVG Version: 6.00 Build 0)  -->
<svg version="1.1" id="Layer_1" xmlns="http://www.w3.org/2000/svg" xmlns:xlink="http://www.w3.org/1999/xlink" x="0px" y="0px"
	 viewBox="0 0 32 32" style="enable-background:new 0 0 32 32;" xml:space="preserve">
<path d="M31.5,29.1l-5.9-5.9c2-2.6,3.1-5.7,3.1-8.9C28.7,6.5,22.3,0,14.3,0S0,6.5,0,14.4s6.5,14.4,14.4,14.4c3.2,0,6.4-1.1,8.9-3.1
	l5.9,5.9c0.3,0.3,0.7,0.5,1.2,0.5s0.8-0.1,1.2-0.5C32.2,30.8,32.2,29.8,31.5,29.1z M25.3,14.5c0,6-4.9,10.9-10.9,10.9
	S3.4,20.5,3.4,14.5S8.3,3.5,14.4,3.5S25.3,8.4,25.3,14.5z"/>
</svg>
